PathFileType	4	(X/Y/Z)	C:/Users/beibeiliu/ov580/test_trc\sequence.23_training_dense_right.trc
DataRate	CameraRate	NumFrames	NumMarkers	Units	OrigDataRate	OrigDataStartFrame	OrigNumFrames
120	120	16	19	mm	120	145	289
Frame#	Time	ThumbCMC			ThumbMCP			ThumbIP			ThumbTip			IndexMCP			IndexPIP			IndexTip			MiddleMCP			MiddlePIP			MiddleTip			RingMCP			RingPIP			RingTip			PinkyMCP			PinkyPIP			PinkyTip			BackHand1			BackHand2			BackHand3	
		X0	Y0	Z0	X1	Y1	Z1	X2	Y2	Z2	X3	Y3	Z3	X4	Y4	Z4	X5	Y5	Z5	X6	Y6	Z6	X7	Y7	Z7	X8	Y8	Z8	X9	Y9	Z9	X10	Y10	Z10	X11	Y11	Z11	X12	Y12	Z12	X13	Y13	Z13	X14	Y14	Z14	X15	Y15	Z15	X16	Y16	Z16	X17	Y17	Z17	X18	Y18	Z18	
144	1.2	169.875	6.44449	21.7992	151.893	4.42911	-0.354502	138.152	10.1856	-16.0666	122.469	10.798	-22.927	166.348	27.8806	-44.229	172.419	0.592675	-49.9882	173.302	-6.05508	-22.1564	184.818	24.8429	-45.0499	186.274	-5.94763	-46.9359	186.657	-5.24488	-15.7542	203.731	23.9177	-49.1275	200.981	-0.658508	-51.2041	199.237	-5.97229	-20.155	228.948	35.6334	-34.0753	227.457	42.8718	-54.2043	227.724	49.5035	-65.7307	210.476	36.2933	-0.521421	214.683	26.6794	29.8595	187.419	35.1652	16.537	
145	1.20833	168.882	15.0892	19.1339	152.249	16.7403	-3.59642	135.726	21.3262	-15.883	121.462	26.2576	-23.0675	171.844	34.373	-45.1879	168.507	8.90771	-51.6996	170.873	1.96738	-20.8791	188.544	29.2236	-47.0096	181.709	-1.70626	-48.9678	184.601	-1.80365	-15.6702	204.362	25.5182	-49.4603	194.695	-1.06542	-49.7974	195.486	-3.45558	-21.0507	229.706	32.4368	-34.8012	231.924	37.4472	-52.2141	239.997	44.5586	-67.6811	218.186	35.0034	1.26847	217.631	26.7527	26.4953	193.898	38.1201	16.117	
146	1.21667	168.769	24.6859	16.2438	154.473	24.2524	-1.89168	137.791	35.0174	-17.0487	124.657	38.6461	-23.4682	170.642	40.2859	-46.4318	164.248	16.46	-50.7582	172.472	9.70362	-18.9764	189.338	30.1964	-47.0668	178.244	1.35855	-46.6045	181.512	5.11533	-12.3374	206.259	24.0026	-48.0838	191.081	0.621225	-48.2468	189.803	-1.19258	-21.4168	233.609	28.2164	-39.3445	235.442	32.9014	-55.9706	240.17	40.6117	-71.5668	217.497	37.3665	-1.32471	219.627	24.4187	23.1829	195.894	38.4048	16.493	
147	1.225	168.143	32.0736	17.2372	153.995	32.9106	-1.87973	140.814	43.9182	-16.2111	128.033	52.4141	-24.8179	177.818	44.6058	-44.164	165.604	19.81	-49.066	170.109	16.4353	-17.6869	191.262	29.5242	-49.8111	172.347	5.07409	-43.787	175.209	11.4575	-11.9914	203.866	23.8822	-48.9676	187.384	3.44306	-49.6023	184.964	1.96957	-20.7117	229.62	23.5491	-36.4876	235.612	25.015	-54.0524	244.934	31.6778	-67.4658	219.894	33.4226	-0.129268	218.415	24.8705	21.7072	200.161	40.0968	15.8875	
148	1.23333	171.59	37.5396	17.55	153.883	42.8706	-2.75081	141.685	56.103	-17.1638	130.03	63.36	-23.0778	177.383	49.0951	-46.297	163.966	23.959	-45.8852	167.204	23.5207	-15.5012	188.915	32.8084	-49.3306	171.08	10.5255	-46.9717	175.996	14.1167	-12.1212	201.057	23.9017	-51.0022	183.114	5.18533	-49.8939	180.17	7.25896	-21.1791	231.314	19.6987	-40.2285	237.041	19.3461	-56.8014	243.735	26.1854	-72.8281	221.527	30.2439	-3.72505	219.26	23.6578	23.4408	204.621	43.2258	15.4079	
149	1.24167	171.557	43.9515	18.4854	158.999	46.0518	-0.85699	145.279	63.0904	-16.6114	137.257	71.8637	-27.082	183.698	50.4309	-45.2944	165.254	31.1713	-48.3589	167.711	24.9021	-19.1898	190.872	35.2669	-47.7902	167.268	16.4492	-45.2085	173.891	17.3864	-11.5372	200.276	23.4193	-49.7186	179.772	9.71707	-49.5637	178.504	9.58072	-17.8724	227.786	14.3123	-40.9546	233.148	14.4885	-56.5921	241.184	18.3741	-72.8191	221.721	28.324	-1.97343	221.191	20.5337	22.8559	204.516	46.3634	13.3831	
150	1.25	176.676	48.7529	18.1744	162.603	54.59	-5.04882	152.868	67.0215	-17.9167	143.171	81.5885	-26.086	185.358	53.8889	-45.4068	162.084	38.3411	-48.5	168.186	34.7958	-14.9914	190.585	32.4731	-50.0016	165.17	18.2624	-42.9277	173.031	21.877	-11.2283	200.92	19.7258	-49.0753	173.38	10.6374	-46.9408	172.767	13.6237	-21.3146	222.923	9.29772	-37.849	227.911	7.22025	-52.6261	238.134	7.44736	-70.7375	222.258	26.0893	-4.38335	219.813	20.8363	21.2025	209.405	44.9678	10.9995	
151	1.25833	181.713	54.6162	14.5943	165.741	59.9808	-4.10084	161.343	72.3347	-22.9088	152.143	85.6693	-30.9114	189.06	54.4522	-45.8582	166.319	38.9578	-48.8518	170.885	35.9954	-15.8442	193.749	31.4337	-48.9873	164.24	23.1732	-45.9189	167.574	27.0175	-14.1229	197.458	13.812	-52.9285	170.853	11.0659	-46.7646	171.373	14.1624	-21.6648	221.104	-1.11272	-36.1359	224.95	-0.807207	-54.6687	232.211	-3.53839	-72.4597	221.04	21.7373	-3.69029	219.772	13.9139	24.6731	212.208	43.443	10.5112	
152	1.26667	186.642	53.2249	14.4535	171.048	62.1783	-4.44649	164.48	79.879	-24.0423	159.669	90.9937	-30.8067	193.099	49.8283	-47.2008	166.166	41.401	-47.3962	171.337	38.5137	-17.4954	190.172	29.3817	-52.8416	163.242	27.6433	-44.6968	169.695	26.4108	-13.0653	197.538	13.1183	-49.0368	172.124	15.5061	-49.1032	170.369	19.898	-21.4785	215.196	-2.64267	-35.7964	219.88	-10.3467	-55.6588	225.424	-11.1425	-68.9814	222.545	13.8963	-3.33125	216.106	16.7885	24.9949	213.689	42.6386	11.4981	
153	1.275	190.703	57.1092	15.4101	176.937	66.4587	-7.01518	172.537	81.9022	-26.6683	165.928	93.6396	-32.8912	192.602	52.4922	-50.1875	166.544	43.7098	-47.4386	172.008	39.9987	-17.9143	194.467	31.3682	-50.459	162.542	27.8215	-43.4226	169.727	34.3876	-12.8512	193.69	13.6027	-51.7411	168.555	16.3029	-45.3089	170.718	20.4945	-18.4213	212.102	-7.21971	-36.002	213.436	-14.1435	-54.2842	219.397	-17.2388	-71.8987	220.686	12.9403	-5.27915	219.941	14.4542	20.2821	216.999	39.6391	9.83347	
154	1.28333	195.151	56.9323	12.2664	182.585	67.4975	-10.4924	177.923	79.5488	-29.2272	174.469	93.921	-38.6376	193.102	46.8931	-52.9091	166.824	45.2889	-46.4214	174.898	41.7013	-17.9968	191.895	26.9826	-51.9979	163.405	28.5449	-46.3583	169.875	36.0673	-13.1557	193.413	9.18955	-48.3578	166.88	12.9617	-45.0949	170.207	25.1744	-18.8926	206.939	-11.9728	-32.9407	207.603	-18.3209	-49.0462	213.137	-26.0706	-64.5628	217.641	12.9615	-3.74088	217.997	11.1522	22.0382	221.201	40.3683	6.38216	
155	1.29167	199.931	57.1217	10.9094	188.051	68.5686	-13.0426	184.606	80.224	-33.6755	182.04	88.7661	-45.255	196.697	42.6515	-54.1331	169.825	41.9827	-47.3007	173.239	45.1506	-21.1427	190.514	26.3475	-53.6627	161.353	28.2518	-43.1428	170.995	37.383	-12.7914	190.242	4.346	-45.0482	163.912	15.0549	-41.9373	172.287	25.9374	-15.7439	203.613	-14.5522	-28.982	202.481	-24.639	-48.0872	206.364	-32.1516	-64.7039	218.555	6.56954	-6.34601	217.208	10.8555	22.0853	221.74	35.9085	5.85689	
156	1.3	205.886	59.5093	6.99141	192.846	66.677	-12.7543	190.059	76.0545	-34.108	189.137	87.3554	-45.5778	199.817	40.8804	-54.8892	171.452	43.4974	-49.3674	176.359	46.1307	-22.6561	190.101	20.3978	-51.0846	164.817	31.8035	-47.426	172.95	37.0147	-12.1858	186.585	6.37614	-47.3869	164.544	20.5558	-38.9426	174.614	28.957	-15.2462	198.767	-17.2593	-26.3224	197.821	-23.7155	-44.1032	198.298	-37.5734	-61.2176	216.837	5.80888	-5.24653	217.761	12.9172	23.2084	226.774	32.1376	4.24734	
157	1.30833	211.364	60.9028	7.21383	201.441	67.1056	-20.4289	199.179	75.3006	-40.92	198.177	83.8036	-53.9118	204.259	35.3207	-52.7784	176.23	45.3835	-53.3085	180.963	48.515	-22.3933	189.719	20.5362	-52.1452	164.525	31.3481	-41.9617	175.31	38.9827	-12.2713	184.319	1.87866	-41.0766	164.544	19.5879	-39.3876	172.517	29.1785	-12.5487	195.328	-18.9419	-22.7599	192.551	-25.6938	-39.999	188.957	-37.0842	-54.3609	217.354	4.65067	1.59608	221.831	12.7329	25.2903	228.849	33.0589	3.01468	
158	1.31667	217.197	57.5772	0.775025	207.48	68.3487	-18.3669	204.433	72.5492	-41.8384	205.478	84.1062	-57.2977	203.223	31.5721	-55.4387	179.504	44.6306	-55.7726	181.148	48.8484	-23.6453	190.589	16.3038	-48.649	165.384	32.5687	-43.7865	176.549	40.8397	-13.0256	183.002	3.88709	-39.7754	165.233	22.4295	-37.1168	179.51	34.8449	-12.2016	190.132	-19.0596	-19.6988	184.607	-25.9317	-39.1213	176.528	-37.4003	-50.0316	215.584	1.54292	-2.12885	220.201	12.8058	22.8551	230.787	30.4278	1.10427	
159	1.325	222.692	58.5625	2.83515	210.776	63.015	-21.0021	208.976	70.5497	-39.8065	210.121	80.8767	-60.0828	202.745	31.6392	-55.8684	179.671	42.4486	-55.2883	184.91	53.242	-24.7091	190.832	16.5302	-47.1642	164.965	36.2703	-38.3209	177.867	43.7823	-14.1809	182.434	6.64298	-37.4402	164.069	27.1935	-33.541	177.256	35.4728	-10.99	187.074	-14.0761	-18.1243	176.21	-25.6801	-33.4216	169.306	-32.4427	-49.8729	213.378	1.13228	3.42223	218.443	8.28058	24.6087	230.71	22.3886	0.841659	
